<svg xmlns="http://www.w3.org/2000/svg" viewBox="0 0 100 100">
  <defs>
    <linearGradient id="bg" x1="0" y1="0" x2="100" y2="100" gradientUnits="userSpaceOnUse">
      <stop offset="0" stop-color="#5b86ff"/>
      <stop offset="1" stop-color="#2e56c6"/>
    </linearGradient>
  </defs>

  <rect x="0" y="0" width="100" height="100" rx="22" fill="url(#bg)"/>

  <!-- document page with folded corner -->
  <path d="M30 25 a5 5 0 0 1 5 -5 h27 l12 12 v46 a5 5 0 0 1 -5 5 h-34 a5 5 0 0 1 -5 -5 z" fill="#ffffff"/>
  <path d="M62 20 l12 12 h-9 a3 3 0 0 1 -3 -3 z" fill="#c7d3f5"/>

  <!-- text lines -->
  <rect x="38" y="42" width="28" height="4.5" rx="2.25" fill="#c7d3f5"/>
  <rect x="38" y="52" width="28" height="4.5" rx="2.25" fill="#c7d3f5"/>
  <rect x="38" y="62" width="19" height="4.5" rx="2.25" fill="#c7d3f5"/>

  <!-- photo badge -->
  <rect x="14" y="56" width="30" height="26" rx="6" fill="#ffffff" stroke="#2e56c6" stroke-width="2.5"/>
  <rect x="18.5" y="60.5" width="21" height="17" rx="2" fill="#eaf0ff"/>
  <circle cx="35" cy="65" r="2.4" fill="#ffb648"/>
  <path d="M19.5 76 l6 -7.5 l4.5 5 l4 -4.5 l6 7z" fill="#3b6df0"/>
</svg>
